# xmcd
#
# Track frame offsets:
#	183
#	13200
#	26208
#	39208
#	64735
#
# Disc length: 1546 seconds
#
# Revision: 1
# Processed by: cddbd v1.4PL0 Copyright (c) Steve Scherf et al.
# Submitted via: EasyCDDAExtractor 5.0.6
#
DISCID=3a060805
DTITLE=Ace Of Base - Lucky Love
DYEAR=1900
DGENRE=
TTITLE0=Lucky Love(Original Version)
TTITLE1=Lucky Love(Acoustic Version)
TTITLE2=Lucky Love(Raggasol Version)
TTITLE3=Lucky Love(Amadin Remix)
TTITLE4=Lucky Love(Armand's ''British Nites'' Remix)
EXTD=
EXTT0=
EXTT1=
EXTT2=
EXTT3=
EXTT4=
PLAYORDER=
